<?xml version="1.0" encoding="UTF-8" standalone="no"?>
<!-- Created with Inkscape (http://www.inkscape.org/) -->

<svg
   xmlns:dc="http://purl.org/dc/elements/1.1/"
   xmlns:cc="http://creativecommons.org/ns#"
   xmlns:rdf="http://www.w3.org/1999/02/22-rdf-syntax-ns#"
   xmlns:svg="http://www.w3.org/2000/svg"
   xmlns="http://www.w3.org/2000/svg"
   xmlns:sodipodi="http://sodipodi.sourceforge.net/DTD/sodipodi-0.dtd"
   xmlns:inkscape="http://www.inkscape.org/namespaces/inkscape"
   width="344.76215"
   height="340.4538"
   id="svg2"
   version="1.1"
   inkscape:version="0.48.4 r9939"
   sodipodi:docname="roll.svg">
  <defs
     id="defs4" />
  <sodipodi:namedview
     id="base"
     pagecolor="#ffffff"
     bordercolor="#666666"
     borderopacity="1.0"
     inkscape:pageopacity="0.0"
     inkscape:pageshadow="2"
     inkscape:zoom="0.35"
     inkscape:cx="91.160748"
     inkscape:cy="180.21124"
     inkscape:document-units="px"
     inkscape:current-layer="layer1"
     showgrid="false"
     fit-margin-top="0"
     fit-margin-left="0"
     fit-margin-right="0"
     fit-margin-bottom="0"
     inkscape:window-width="1280"
     inkscape:window-height="961"
     inkscape:window-x="-4"
     inkscape:window-y="-4"
     inkscape:window-maximized="1" />
  <metadata
     id="metadata7">
    <rdf:RDF>
      <cc:Work
         rdf:about="">
        <dc:format>image/svg+xml</dc:format>
        <dc:type
           rdf:resource="http://purl.org/dc/dcmitype/StillImage" />
        <dc:title />
      </cc:Work>
    </rdf:RDF>
  </metadata>
  <g
     inkscape:label="Layer 1"
     inkscape:groupmode="layer"
     id="layer1"
     transform="translate(-199.66617,-355.9542)">
    <path
       style="fill:#ffffff"
       d="m 351.55147,696.21356 c -1.375,-0.23393 -5.65,-0.91908 -9.5,-1.52254 -49.39676,-7.74261 -91.96355,-36.11203 -118.68822,-79.10194 -12.82182,-20.62548 -24.70445,-52.81307 -23.62929,-64.00684 l 0.31751,-3.30561 4.5791,7 c 16.15469,24.6954 42.65725,50.70156 67.52553,66.26073 18.53112,11.59424 39.75479,19.89725 58.37673,22.83783 19.71611,3.11336 44.74144,0.91705 64.01864,-5.61848 16.17496,-5.48379 43.26112,-21.04018 56.49182,-32.44495 l 3.99183,-3.44092 -3.49183,-3.63996 c -1.9205,-2.00198 -7.6678,-7.2747 -12.77177,-11.71716 -5.141,-4.47469 -8.89842,-8.45872 -8.42452,-8.93262 1.06741,-1.06741 89.47283,-9.82092 90.32721,-8.94379 1.18371,1.21521 2.00282,91.13932 0.83018,91.13932 -0.59642,0 -6.02839,-4.3875 -12.07103,-9.75 -6.04264,-5.3625 -11.44408,-9.91034 -12.0032,-10.10632 -0.55913,-0.19597 -4.47306,2.96977 -8.69764,7.03499 -24.51318,23.58849 -52.56283,38.47296 -85.56861,45.40674 -9.80137,2.05906 -15.64227,2.61442 -30.61244,2.91071 -10.175,0.20138 -19.625,0.17475 -21,-0.0592 z M 538.366,495.77663 c -8.07675,-12.07504 -15.4062,-20.96799 -27.0725,-32.84752 -26.81287,-27.30295 -55.18814,-44.41429 -87.74203,-52.91171 -9.75511,-2.54634 -11.91883,-2.74077 -30.5,-2.74077 -18.78079,0 -20.67057,0.17451 -31,2.86273 -18.49676,4.81375 -33.69385,11.6221 -50.23799,22.5068 -10.77938,7.09196 -22.26201,15.94412 -22.26201,17.16218 0,0.46703 5.63015,5.9108 12.51145,12.09727 6.88129,6.18647 12.16799,11.59158 11.74821,12.01136 -0.41978,0.41978 -12.68743,1.92703 -27.26145,3.34943 -14.57402,1.42241 -32.96889,3.2441 -40.8775,4.04821 -7.90861,0.80411 -16.34611,1.46202 -18.75,1.46202 l -4.37071,0 -0.002,-19.25 c -0.001,-10.5875 -0.29839,-31.0625 -0.66053,-45.5 -0.51241,-20.42797 -0.38632,-26.25 0.56849,-26.25 0.67482,0 6.32033,4.5 12.54559,10 6.22525,5.5 11.72477,10 12.22114,10 0.49637,0 3.13558,-2.28779 5.8649,-5.08398 23.84079,-24.42483 56.36816,-41.65884 91.46241,-48.45963 13.19373,-2.55676 40.06389,-3.05963 54,-1.01059 57.78137,8.49564 104.3107,42.34362 130.79968,95.15086 8.42143,16.78858 15.7838,40.57124 15.02297,48.52871 -0.32099,3.35729 -0.35187,3.33095 -6.00812,-5.12537 z"
       id="path2996"
       inkscape:connector-curvature="0" />
    <text
       xml:space="preserve"
       style="font-size:70.17690276999999800px;font-style:normal;font-weight:normal;line-height:125%;letter-spacing:0px;word-spacing:0px;fill:#ffffff;fill-opacity:1;stroke:none;font-family:Sans"
       x="265.74017"
       y="565.71039"
       id="text3001"
       sodipodi:linespacing="125%"><tspan
         sodipodi:role="line"
         id="tspan3003"
         x="265.74017"
         y="565.71039"
         style="font-size:112.28305054000000000px;font-style:normal;font-variant:normal;font-weight:bold;font-stretch:normal;font-family:Arial;-inkscape-font-specification:Arial Bold;fill:#ffffff">Roll</tspan></text>
  </g>
</svg>
